<svg width="32" height="25" viewBox="0 0 32 25" fill="none" xmlns="http://www.w3.org/2000/svg">
<path d="M5.26805 18.6544L5.63732 20.0534C6.10504 21.8723 7.12665 22.805 9.15756 22.805H22.4138C24.4571 22.805 25.4664 21.8956 25.9464 20.0534L26.3157 18.6544H5.26805ZM4.86188 17.0571H26.7341L29.0481 8.07967L28.0389 7.5317L22.3647 11.4491C21.9461 11.729 21.663 11.624 21.4291 11.3092L16.0873 3.66092L15.4965 3.6376L10.1053 11.3442C9.89608 11.6473 9.6499 11.7406 9.23141 11.4608L3.66795 7.61332L2.48633 7.90479L4.86188 17.0571ZM2.94174 10.4114C4.56647 10.4114 5.87117 9.16397 5.87117 7.61332C5.87117 6.09765 4.56647 4.83848 2.94174 4.83848C1.31702 4.83848 0 6.08599 0 7.61332C0 9.16397 1.32932 10.4114 2.94174 10.4114ZM15.7919 5.56133C17.4043 5.56133 18.7213 4.31383 18.7213 2.77484C18.7213 1.25917 17.4043 0 15.7919 0C14.1549 0 12.8501 1.24752 12.8501 2.77484C12.8501 4.31383 14.1672 5.56133 15.7919 5.56133ZM28.6297 10.4114C30.2421 10.4114 31.5714 9.16397 31.5714 7.61332C31.5714 6.08599 30.2544 4.83848 28.6297 4.83848C27.0173 4.83848 25.7003 6.09765 25.7003 7.61332C25.7003 9.16397 27.0173 10.4114 28.6297 10.4114Z" fill="#262626"/>
</svg>
