<svg width="34" height="17" viewBox="0 0 34 17" fill="none" xmlns="http://www.w3.org/2000/svg">
<path d="M17.0056 16.9669C23.6009 16.9669 28.2944 14.4118 28.2944 10.6624V5.13208C28.2944 1.81393 24.3016 0 17.0056 0C9.69845 0 5.7056 1.81393 5.7056 5.13208V10.6624C5.7056 14.4118 10.3991 16.9669 17.0056 16.9669ZM10.9774 6.10541C10.9774 5.60769 11.3889 5.18738 11.9006 5.18738H22.1106C22.6334 5.18738 23.0448 5.60769 23.0448 6.10541C23.0448 6.61419 22.6334 7.03449 22.1106 7.03449H11.9006C11.3889 7.03449 10.9774 6.61419 10.9774 6.10541ZM10.9774 10.3748C10.9774 9.86596 11.3889 9.44567 11.9006 9.44567H22.1106C22.6334 9.44567 23.0448 9.86596 23.0448 10.3748C23.0448 10.8835 22.6334 11.2927 22.1106 11.2927H11.9006C11.3889 11.2927 10.9774 10.8835 10.9774 10.3748ZM0 7.26676C0 10.8283 2.60256 13.3169 6.50638 13.3169H7.22932V11.5362H6.32843C3.62578 11.5362 1.79065 9.7443 1.79065 7.26676C1.79065 6.03905 2.44684 5.28693 3.6369 5.28693H6.77331V3.50618H3.6369C1.33464 3.50618 0 4.92193 0 7.26676ZM34 7.26676C34 4.92193 32.6765 3.50618 30.3631 3.50618H27.2267V5.28693H30.3631C31.5532 5.28693 32.2094 6.03905 32.2094 7.26676C32.2094 9.7443 30.3742 11.5362 27.6715 11.5362H26.7707V13.3169H27.5048C31.3974 13.3169 34 10.8283 34 7.26676Z" fill="#262626"/>
</svg>
