<svg width="57" height="57" viewBox="0 0 57 57" fill="none" xmlns="http://www.w3.org/2000/svg">
<mask id="mask0_57_7014" style="mask-type:luminance" maskUnits="userSpaceOnUse" x="0" y="0" width="57" height="57">
<path d="M56.367 0H0V56.367H56.367V0Z" fill="white"/>
</mask>
<g mask="url(#mask0_57_7014)">
<path d="M30.9076 8.52957C33.2658 8.87468 35.5089 9.79495 37.407 11.2329C39.0175 12.4408 40.2829 14.0512 41.1456 15.8918C41.8934 17.5023 42.296 19.3428 42.2385 21.1259C42.181 21.9886 42.0659 22.8514 41.7783 23.6566H41.6633L41.7208 22.4488C41.7783 20.7232 41.6058 19.0552 40.9731 17.4448C40.3979 15.7192 39.3626 14.1663 38.0972 12.9009C35.6815 10.6002 32.4605 9.33482 29.1245 9.2773C26.9547 9.24143 24.8063 9.71133 22.8496 10.6498C20.8928 11.5882 19.1815 12.9694 17.8511 14.6839C16.1478 16.9855 15.331 19.8239 15.5504 22.6788L15.6655 24.1168C16.1256 24.1168 16.7583 24.1168 17.1034 24.5194L16.9308 24.6919L15.9531 24.7495C15.2628 24.807 14.5726 25.037 14.055 25.4972C13.4828 26.1115 13.1378 26.903 13.0772 27.7404C12.7896 29.5809 13.7674 31.479 15.3204 32.5143C16.2406 33.0895 17.391 33.3771 18.4838 33.0319C18.7139 32.9169 19.0015 32.7444 19.2891 32.8594C19.4616 32.9169 19.5191 33.0895 19.5766 33.262C20.7466 35.6146 22.5364 37.6033 24.7532 39.0137C25.2133 39.4164 25.7885 39.7615 26.3637 40.0491C27.399 40.5092 28.5493 40.8543 29.6422 41.1419L31.4827 41.602C31.7703 41.6595 32.0004 41.6595 32.2305 41.7746L32.0004 41.8321C30.5625 41.9471 29.2396 41.6595 27.8591 41.2569C27.1689 41.0844 26.5362 40.8543 25.9035 40.5667C24.0963 39.6462 22.4618 38.4203 21.0721 36.9431L21.1871 38.5536C21.2446 39.5314 21.1871 40.5667 20.842 41.5445C20.612 42.2347 20.2093 42.9249 19.7492 43.5001C19.174 44.0753 18.4838 44.5929 17.7936 44.9955C17.2184 45.3982 16.5857 45.8008 15.9531 46.0309L15.0328 46.3184L15.5504 45.8008L17.3335 44.6504L18.5989 43.6727C19.5692 42.8465 20.2203 41.7071 20.4394 40.4517C20.5544 39.6464 20.5544 38.8412 20.5544 37.9784V36.4255C19.9793 35.6202 19.2891 34.7575 19.0015 33.7797C18.0237 34.2398 16.8158 34.1823 15.838 33.7222C14.8602 33.3195 13.9975 32.6293 13.3648 31.8241C12.6746 30.8463 12.2719 29.7535 12.1569 28.6031C12.0419 27.4528 12.2719 26.3024 13.0197 25.3821C13.5373 24.807 14.2851 24.3468 15.0328 24.1743C14.8027 23.369 14.6877 22.5063 14.6877 21.6435C14.735 19.7418 15.1849 17.8716 16.0078 16.1564C16.8307 14.4413 18.0078 12.92 19.4616 11.693C21.0322 10.3778 22.8667 9.41482 24.8413 8.8691C26.8158 8.32337 28.8844 8.20759 30.9076 8.52957Z" fill="#262626"/>
<path d="M38.0969 12.9067C39.3622 14.1721 40.3975 15.7251 40.9727 17.4506C41.6054 19.0611 41.778 20.7291 41.7204 22.4546L41.6629 23.6625L41.3753 24.5252L41.2603 25.273L41.3753 28.4939C41.3753 29.7018 41.4329 30.9097 41.3178 32.1175L41.1453 34.8208C41.0302 35.7411 40.7426 36.6039 40.34 37.4091C39.7073 38.4444 38.8446 39.3072 37.8093 39.9399C37.0615 40.4 36.2563 40.6301 35.4511 40.8602L33.2654 41.4929L32.2876 41.6654C32.2876 41.7229 32.3451 41.7804 32.4602 41.7804C32.9203 42.068 33.4379 42.068 33.9556 42.0105C33.7831 42.4131 33.7255 42.8158 33.8406 43.2759C34.0131 43.6785 34.4733 43.9086 34.8184 44.0811C35.5086 44.4262 36.1988 44.4838 36.889 44.5988C37.2916 44.9439 37.6942 45.404 37.8093 45.9792C37.9243 46.4393 37.9243 46.8995 37.6942 47.3021C37.4066 47.8773 36.889 48.3374 36.3138 48.625C35.5661 49.0851 34.7608 49.4302 33.8981 49.6603C29.6988 50.6655 25.3193 50.6458 21.1292 49.6028C20.1514 49.3727 19.2312 49.0851 18.3684 48.625C17.6782 48.2799 17.0455 47.8773 16.5279 47.3596C16.2403 46.957 16.0102 46.5544 15.9527 46.0367C16.5854 45.8067 17.2181 45.404 17.7932 45.0014C18.4834 44.5988 19.1737 44.0811 19.7488 43.506C20.209 42.9308 20.6116 42.2406 20.8417 41.5504C21.1868 40.5726 21.2443 39.5373 21.1868 38.5595L21.0717 36.949L22.3371 38.2719C23.4299 39.1346 24.6378 39.9974 25.9032 40.5726C26.5359 40.8602 27.1686 41.0902 27.8588 41.2628C29.2392 41.6654 30.5621 41.953 32 41.838L32.2301 41.7804C32 41.6654 31.7699 41.6654 31.4824 41.6079L29.6418 41.1478C28.549 40.8602 27.3986 40.5151 26.3633 40.0549L24.6953 39.0771C24.0626 38.5595 23.3724 38.0993 22.7972 37.5242C21.4684 36.3179 20.376 34.8745 19.5763 33.2679C19.5188 33.0953 19.4612 32.9228 19.2887 32.8653C19.0011 32.7502 18.7135 32.9228 18.4834 33.0378C17.3906 33.3829 16.2403 33.0953 15.32 32.5202C14.5434 32.0075 13.9231 31.2907 13.5274 30.4485C13.1317 29.6063 12.9758 28.6713 13.0768 27.7462C13.1343 26.941 13.4794 26.1357 14.0546 25.503C14.5723 25.0429 15.2625 24.8128 15.9527 24.7553L16.9305 24.6978L17.103 24.5252C16.7579 24.1226 16.1252 24.1226 15.6651 24.1226L15.5501 22.6847C15.3307 19.8298 16.1474 16.9914 17.8508 14.6898C19.1811 12.9753 20.8925 11.5941 22.8492 10.6556C24.8059 9.71719 26.9543 9.24729 29.1242 9.28316C32.4602 9.34068 35.6811 10.6061 38.0969 12.9067Z" fill="#FFDECC"/>
<path d="M41.3762 24.5234C41.5488 24.5234 41.5488 24.7535 41.6063 24.8685C41.7788 25.5012 41.8363 26.1914 41.8939 26.8241L42.0089 28.032C42.0664 29.2974 42.1239 30.5052 42.0664 31.7706C42.0089 32.9785 42.0089 34.3014 41.7788 35.5092C41.5345 36.7617 40.9874 37.9354 40.1854 38.9279C39.3834 39.9204 38.3507 40.7016 37.1774 41.2035C36.3147 41.6061 35.3944 41.8361 34.4166 41.9512V42.8139C34.4741 42.9865 34.5892 43.044 34.7042 43.159C35.3944 43.5041 36.0271 43.6192 36.7748 43.7917C37.465 43.9643 38.1552 44.0793 38.8454 44.4244C38.6729 44.597 38.4428 44.6545 38.2128 44.6545C37.8101 44.712 37.35 44.597 36.8899 44.597C36.1997 44.4819 35.5094 44.4244 34.8192 44.0793C34.4741 43.9068 34.014 43.6767 33.8414 43.2741C33.7264 42.8139 33.7839 42.4113 33.9565 42.0087C33.4388 42.0662 32.9212 42.0662 32.461 41.7786C32.346 41.7786 32.2885 41.7211 32.2885 41.6636L33.2663 41.491L35.4519 40.8584C36.2572 40.6283 37.0624 40.3982 37.8101 39.9381C38.8454 39.3054 39.7082 38.4426 40.3409 37.4073C40.7435 36.6021 41.0311 35.7393 41.1461 34.819L41.3187 32.1157C41.4337 30.9079 41.3762 29.7 41.3762 28.4921L41.2612 25.2712L41.3762 24.5234ZM15.0333 26.0764C15.4934 26.0764 16.0111 26.1339 16.3562 26.479C16.6438 26.7091 16.9314 26.9967 17.0464 27.3418C17.1039 27.5143 17.0464 27.6869 16.9314 27.8019L16.1836 28.2621C15.781 28.6072 15.781 29.3549 16.1836 29.7C16.5287 29.9876 16.9889 30.1601 17.3915 30.3327C17.5065 30.3327 17.6791 30.3902 17.7366 30.5052C17.6791 30.6203 17.564 30.6778 17.449 30.6778C16.8738 30.6778 16.2987 30.5052 15.8385 30.1601C15.5509 29.9876 15.3784 29.7 15.3209 29.4124C15.2058 28.9523 15.2058 28.4346 15.5509 28.032C15.781 27.6869 16.1836 27.5143 16.5862 27.3418C16.3562 27.0542 16.1836 26.7091 15.781 26.5941C15.3784 26.4215 14.9182 26.4215 14.5156 26.3065L15.0333 26.0764Z" fill="#262626"/>
<path d="M39.8222 22.3984C40.0523 22.3984 40.2824 22.3984 40.3974 22.571C40.6275 22.7435 40.6275 23.1462 40.3399 23.3187C40.1673 23.4337 39.9948 23.4337 39.7647 23.4337L38.7294 23.6638C38.7294 24.0664 38.6719 24.5266 38.4993 24.9292C38.3843 25.2168 38.1542 25.4469 37.9242 25.6194C37.5791 25.792 37.1764 25.6769 36.9464 25.3893L36.7738 24.9292C36.6013 25.1018 36.4862 25.2743 36.2562 25.3893C36.0836 25.4469 36.0261 25.3893 36.0261 25.2168C36.0836 24.8717 36.2562 24.5841 36.4862 24.354C37.0919 23.5152 37.9325 22.8748 38.902 22.5135L39.8222 22.3984ZM25.903 23.2037C26.5357 23.2037 27.1109 23.3187 27.6861 23.4337C28.4913 23.6638 29.2966 23.8939 29.9868 24.4691C30.1593 24.6416 30.4469 24.8142 30.5044 25.0442C30.5044 25.1593 30.5044 25.2168 30.3894 25.2168L29.7567 24.9292C29.1815 24.6416 28.4913 24.4691 27.8011 24.354C27.6861 24.8717 27.571 25.3893 27.2259 25.8495C26.9959 26.0795 26.7083 26.1946 26.3632 26.1946C25.903 26.1371 25.4429 25.907 25.1553 25.5619C24.8677 25.1593 24.8102 24.7566 24.7527 24.239L23.9475 24.4691C23.7749 24.5266 23.6023 24.5841 23.4298 24.5266C23.1422 24.4691 23.0272 24.1815 23.0847 23.8939C23.1422 23.6638 23.3723 23.5488 23.6023 23.4913C24.2926 23.2037 25.1553 23.1462 25.903 23.2037Z" fill="#262626"/>
<path d="M28.0895 16.7041C29.0097 16.7616 29.9875 17.1067 30.7353 17.6819C30.9078 17.8544 31.1379 17.9694 31.1954 18.1995C31.2529 18.3145 31.1379 18.4871 31.0228 18.4296C30.5627 18.3721 30.1601 18.142 29.7 18.027C29.2973 17.8544 28.8372 17.7394 28.3771 17.7394C27.9744 17.6819 27.5143 17.7394 27.1117 17.7969C26.2489 17.9119 25.3862 18.3145 24.6384 18.7172L23.4306 19.2348L23.373 19.1773C23.4306 18.9472 23.5456 18.6596 23.7182 18.4871C24.0633 17.9119 24.6959 17.5668 25.2711 17.2792C26.1339 16.8766 27.1117 16.6465 28.0895 16.7041ZM39.2478 16.9341C39.5354 17.0492 39.8805 17.2217 40.1106 17.5093C40.3407 17.7394 40.3982 18.027 40.3407 18.3721L39.0178 17.9694C38.6151 17.8544 38.27 17.9119 37.8674 17.8544C37.4648 17.8544 37.0046 17.9119 36.6595 18.142L35.9118 18.6021H35.7393C35.6818 18.4296 35.7393 18.257 35.8543 18.142C36.1419 17.6243 36.602 17.2792 37.1197 17.1067C37.8099 16.8766 38.5001 16.7616 39.2478 16.9341Z" fill="#262626"/>
<path d="M35.2207 29.7578V29.8153C34.9907 30.2755 34.588 30.6781 34.0704 30.8506C33.8978 30.9082 33.6678 30.9082 33.5527 30.7931V30.5631C33.9554 30.2755 34.473 30.0454 34.9331 29.8728L35.2207 29.7578Z" fill="#262626"/>
<path fill-rule="evenodd" clip-rule="evenodd" d="M27.1692 31.7678L26.3639 31.5378H26.3064C26.1914 31.4803 26.0188 31.4803 25.9613 31.5953C25.9038 31.6528 25.9613 31.7678 26.0188 31.7678L26.3639 31.9404L26.479 31.9979C27.8015 32.6659 29.2169 33.1312 30.6777 33.3783C30.6777 33.781 30.7928 34.1836 31.0804 34.5287C31.368 34.9313 31.7706 35.2764 32.2882 35.449C32.8634 35.679 33.4961 35.6215 34.0713 35.3914C34.6464 35.1614 35.1066 34.7012 35.3366 34.1261C35.4517 33.896 35.4517 33.6084 35.4517 33.3783L36.487 33.0332V32.9757L36.602 32.8607C36.046 32.8553 35.49 32.8553 34.934 32.8607C33.2823 33.0044 31.6188 32.927 29.9875 32.6306L27.7444 31.9979L27.6293 31.9404L27.1692 31.7678ZM31.1379 33.4359C31.1954 34.011 31.6555 34.4712 32.1732 34.7587C32.8634 35.2764 34.0137 35.0463 34.4739 34.2986C34.6464 34.0685 34.704 33.781 34.7615 33.4934V33.4359L33.266 33.5509L33.3235 33.6084C33.3235 33.781 33.3811 33.896 33.266 34.0685C33.151 34.2411 32.9209 34.2411 32.8634 34.0685C32.7484 33.896 32.7484 33.7234 32.8059 33.5509C32.3271 33.5067 31.8477 33.4684 31.368 33.4359H31.1379Z" fill="#262626"/>
<path d="M25.444 6.11719H27.7447C30.563 6.23222 33.3239 6.74988 36.0272 7.38257C37.6377 7.78519 39.1331 8.30285 40.5711 9.10809C41.3188 9.56823 42.124 10.1434 42.6992 10.8336C43.3894 11.5813 43.8495 12.5016 44.0221 13.4794C44.2522 14.6873 44.2522 15.9526 43.8495 17.1605C43.562 18.0233 43.0443 18.886 42.2966 19.4612C41.2613 20.324 39.9384 20.8991 38.6155 20.9567C38.5004 21.0142 38.3854 20.9567 38.3854 20.7841L38.8455 19.8638C38.2291 20.4679 37.4809 20.9207 36.6599 21.1867C36.4298 21.2442 36.0847 21.3018 35.8546 21.1867V20.8991C35.8546 20.0364 35.7971 19.2311 35.567 18.4259C35.3945 17.5056 34.9344 16.7579 34.5317 15.9526C34.6468 16.8154 34.5892 17.7357 34.4167 18.5984C34.2441 19.4037 33.899 20.0939 33.3239 20.6691C33.2088 20.8991 32.9212 20.9567 32.6912 20.8416L32.5761 20.439C32.4611 19.8063 32.1735 19.2311 31.8859 18.656C31.3683 17.5056 30.6206 16.5278 29.7578 15.6075C28.4985 14.3485 27.0162 13.3343 25.3865 12.6166C25.4711 14.6275 25.2775 16.6405 24.8113 18.5984C24.5812 19.4037 24.2361 20.2089 23.7185 20.8991C23.5459 21.1292 23.3159 21.4743 23.0283 21.5893H22.6256C22.6832 20.8991 22.6832 20.2089 22.5681 19.5187C22.4531 18.886 22.2805 18.1958 21.993 17.6206C21.8204 18.656 21.2452 19.5187 20.555 20.324C20.0374 20.7841 19.5197 21.2442 18.887 21.5893V25.5005L18.9445 27.226C18.9445 27.3986 18.772 27.6862 18.5994 27.7437C18.3118 27.6862 18.0818 27.5711 17.8517 27.3986C17.1615 26.9385 16.5288 26.4208 15.9536 25.7881C15.0097 24.7405 14.2885 23.512 13.8337 22.1773C13.3789 20.8425 13.2 19.4293 13.3078 18.0233C13.4999 15.5475 14.4065 13.1807 15.9175 11.2102C17.4286 9.23967 19.4792 7.75015 21.8204 6.92243C22.9707 6.46229 24.1786 6.1747 25.444 6.11719Z" fill="#262626"/>
</g>
</svg>
